<svg id="Layer_1" data-name="Layer 1" xmlns="http://www.w3.org/2000/svg" viewBox="0 0 329.13706 345.18324"><path d="M461.54087,287.13851c.41762.70166.64355.90762.65371,1.12373.27476,5.842.783,11.68832.70943,17.52706-.06885,5.46336-.7132,10.9228-1.18421,16.37706a162.54283,162.54283,0,0,1-6.09631,31.47452,179.01538,179.01538,0,0,1-32.601,62.19433,195.73075,195.73075,0,0,1-34.39871,33.65694c-5.64947,4.29964-11.55782,8.25941-17.35947,12.35816a14.08464,14.08464,0,0,1-1.74541.83975c-5.24641-3.71667-10.70858-7.41033-15.97873-11.36017a200.772,200.772,0,0,1-23.35373-20.40337A188.27872,188.27872,0,0,1,295.44412,382.511a179.12374,179.12374,0,0,1-16.81823-55.14907c-1.69941-12.42587-1.41733-24.86023-1.28331-37.31642a19.2497,19.2497,0,0,1,.51265-2.86964,159.30411,159.30411,0,0,0,48.95494-11.16075,154.32019,154.32019,0,0,0,43.04477-26.57495C396.4359,272.20288,427.13967,284.779,461.54087,287.13851Zm-37.27865,20.14617c-21.39419,20.35546-42.38569,40.32782-63.69015,60.59791L332.304,339.62621q-8.4117,8.33817-15.89113,15.75226,21.849,21.83847,44.17905,44.15777c4.91957-3.49007,77.4577-73.01531,79.042-75.94654C434.644,318.29674,429.61568,312.96316,424.26222,307.28468Z" transform="translate(-133.77415 -249.44016)"/><path d="M228.30731,567.561c-13.28737-24.67811-26.32993-48.90152-39.58689-73.52316,1.15074-.71455,2.1126-1.41336,3.15937-1.945,5.89066-2.9915,11.86788-5.8191,17.6922-8.93332q18.79074-10.04731,37.43773-20.36209a6.49147,6.49147,0,0,1,5.26516-.76686q35.01555,9.27029,70.07339,18.38085c5.29772,1.38772,10.58336,2.82141,15.87539,4.23092a18.107,18.107,0,0,1,13.40123,15.75126,22.95636,22.95636,0,0,1-1.30323,10.29409,4.36029,4.36029,0,0,1-3.38382,3.0911,37.27032,37.27032,0,0,0-5.025,1.43419,10.87776,10.87776,0,0,1-6.59138.14444c-13.88132-3.49722-27.79262-6.87578-41.66792-10.39643a5.748,5.748,0,0,0-5.278.85741,5.44206,5.44206,0,0,0,.91257,9.47592,14.65571,14.65571,0,0,0,2.84911.87717c14.62414,3.60177,29.25832,7.16315,43.86959,10.81613a10.74984,10.74984,0,0,0,5.8581-.10455q24.56037-7.17254,49.1496-14.24621,33.72948-9.753,67.46315-19.49182c.82173-.23716,1.67533-.36392,2.71229-.58425a21.7125,21.7125,0,0,1,.90508,14.29078,37.44073,37.44073,0,0,1-3.23031,7.91678,15.17927,15.17927,0,0,1-7.98549,6.99043c-11.61538,4.83655-23.18373,9.78609-34.76784,14.69771q-29.24479,12.39971-58.48707,24.80548c-6.88156,2.91816-13.773,5.81319-20.6438,8.75642a10.36846,10.36846,0,0,1-6.14648.57269c-17.28616-2.95239-34.60631-5.70511-51.90878-8.563q-14.35446-2.371-28.68291-4.89763a7.47453,7.47453,0,0,0-5.66019,1.06668c-4.00491,2.52261-8.13662,4.8448-12.23153,7.223C231.18318,566.09823,229.96424,566.68764,228.30731,567.561Z" transform="translate(-133.77415 -249.44016)"/><path d="M225.256,585.69253c-5.70682,3.06686-10.946,5.88236-16.61865,8.93088-24.86536-29.09725-49.648-58.09761-74.86315-87.60422,12.84106-6.91963,25.16562-13.561,37.972-20.46192,9.29062,16.47961,17.866,33.00645,26.76438,49.35186C207.43427,552.30115,216.18371,568.78809,225.256,585.69253Z" transform="translate(-133.77415 -249.44016)"/></svg>