<svg id="Layer_1" data-name="Layer 1" xmlns="http://www.w3.org/2000/svg" viewBox="0 0 303.46776 335.37147"><path d="M367.86477,462.82473c.10711,2.06231.22044,3.23181.22085,4.40136q.01462,42.66372-.00082,85.32746c-.03185,25.31616-16.93406,42.12617-42.305,42.12932q-85.8888.0107-171.77762-.00877c-19.83149-.01067-35.57357-11.95546-40.107-30.52758a45.7736,45.7736,0,0,1-1.19018-10.72909q-.09615-126.49414-.03362-252.98834c.01156-23.74331,17.35568-41.05384,41.12547-41.07329q86.63726-.07086,173.27458-.00084c22.53011.017,40.26873,16.6712,40.98632,38.1598a4.34671,4.34671,0,0,1-2.64049,4.6477,37.52707,37.52707,0,0,0-14.76759,14.4899q-46.7307,80.942-93.41667,161.90987c-5.24706,9.10063-7.02,19.10812-7.31067,29.44616-.21322,7.58342-1.33466,15.32372-.242,22.72706,3.2116,21.7614,27.69017,33.37889,46.72885,22.40194a160.951,160.951,0,0,0,23.22375-15.65253A70.17187,70.17187,0,0,0,334.093,520.59828c10.85942-17.74518,20.97455-35.94579,31.39051-53.96261C366.0794,465.605,366.74381,464.61384,367.86477,462.82473ZM224.547,387.15314q13.28015,0,26.5603,0c12.22024-.00025,24.44059.03042,36.66066-.01522,5.51819-.02062,8.839-2.57343,9.47389-7.0713.753-5.33511-3.33518-8.999-10.1522-9.001q-62.09876-.01818-124.19749.0122a18.35927,18.35927,0,0,0-4.439.45028,7.81749,7.81749,0,0,0-.06508,15.12413,22.004,22.004,0,0,0,5.18233.48112Q194.05864,387.17954,224.547,387.15314Zm23.70648-64.0002q-30.50268,0-61.00532.01843a20.57032,20.57032,0,0,0-4.81542.448,7.81776,7.81776,0,0,0-.10825,15.12652,19.78636,19.78636,0,0,0,4.81074.48128q61.19244.037,122.3849.00512a20.68133,20.68133,0,0,0,4.45347-.35972,7.62785,7.62785,0,0,0,6.1176-8.5544c-.41891-4.54734-3.87322-7.14858-9.70957-7.15537Q279.31756,323.12656,248.25345,323.15294ZM211.03384,435.05469c16.56812,0,33.1365.051,49.70424-.02917,5.39868-.02611,8.95662-3.36648,8.97329-7.99915.01665-4.62144-3.557-7.845-8.93695-8.05263-.622-.024-1.24561-.00774-1.86847-.00774q-47.8358-.00032-95.67157.01853a20.27164,20.27164,0,0,0-4.80646.46109,7.817,7.817,0,0,0-.03425,15.119,19.88507,19.88507,0,0,0,4.80442.47494Q187.11589,435.08876,211.03384,435.05469Zm-13.811,47.9111c11.4644,0,22.92888.01934,34.39313-.02214a18.94875,18.94875,0,0,0,4.79871-.51807,7.8081,7.8081,0,0,0,.03305-15.004,20.4556,20.4556,0,0,0-5.17029-.5276q-29.5332-.05155-59.06655-.02113c-3.73831.00032-7.47928-.07476-11.21422.04039-3.8252.11792-6.7255,1.78779-7.96487,5.60449-1.7884,5.50747,2.16647,10.36177,8.67658,10.41637C173.5458,483.03338,185.38463,482.96231,197.22286,482.96579Zm-4.41751,31.81563c-10.33685,0-20.67394-.04007-31.01046.018-4.68067.02632-7.60659,1.97937-8.76174,5.56449-1.8218,5.65415,2.19621,10.46711,8.981,10.48611q30.82352.08646,61.64742-.00429a13.28085,13.28085,0,0,0,4.03928-.58311,7.77568,7.77568,0,0,0,4.75488-10.26935c-1.54423-3.92-4.72324-5.20609-8.63978-5.20906Q208.31063,514.77243,192.80535,514.78142Z" transform="translate(-112.647 -259.32132)"/><path d="M348.646,352.40915c15.64613,9.03032,30.96028,17.86741,46.27006,26.712.5304.30642,1.01727.68821,1.80622,1.22749-.67049,1.24946-1.26833,2.43975-1.93312,3.59137q-36.89775,63.91545-73.77275,127.844a46.58791,46.58791,0,0,1-15.74877,16.64474c-4.95559,3.11835-9.80786,6.40257-14.67384,9.66118-5.805,3.8875-11.85675,4.5872-17.91632.9179-6.03244-3.65287-8.274-9.27474-7.66706-16.25735.66882-7.69427.6547-15.475,1.78667-23.09195a39.83855,39.83855,0,0,1,4.65787-13.65444q37.779-65.99359,75.96181-131.75593C347.7179,353.72684,348.08532,353.24379,348.646,352.40915Z" transform="translate(-112.647 -259.32132)"/><path d="M404.91852,366.47323c-16.26334-9.38618-32.27607-18.6277-48.49157-27.98626,3.12941-5.318,5.85789-10.49592,9.09158-15.33638a23.53477,23.53477,0,0,1,30.05669-8.01657,84.98927,84.98927,0,0,1,10.01618,5.76887,23.528,23.528,0,0,1,8.34816,29.38894C411.344,355.77139,408.04525,360.91789,404.91852,366.47323Z" transform="translate(-112.647 -259.32132)"/></svg>