<svg id="Layer_1" data-name="Layer 1" xmlns="http://www.w3.org/2000/svg" viewBox="0 0 337.06902 383.25301"><path d="M251.96491,613.63837a9.17052,9.17052,0,0,0-1.81791-1.40771c-5.156-2.23111-6.96921-6.61966-7.95-10.82744-1.34746-5.78073-2.77622-11.54685-4.24721-17.299-.95177-3.72188-2.41134-7.4037-2.47815-11.356a1.62244,1.62244,0,0,0-1.84865-1.75985c-2.26555.20788-4.643.17489-6.73277.9192a20.14345,20.14345,0,0,1-3.12588.57045c-1.028.20715-2.02824.58537-3.06261.72-2.38376.31028-4.98495.01788-7.12273.88989-2.91,1.187-6.0499-.28657-8.81353,1.32787-.55806.326-1.46949.04713-2.218.04713-4.491,0-8.98746-.13669-13.47158.03945a41.07648,41.07648,0,0,1-12.45442-1.63121c-5.32793-1.45712-9.9121-4.18286-13.076-9.14675a21.35984,21.35984,0,0,1-2.88861-9.2992c-.09218-.737.06218-1.50439-.02615-2.24233-.48382-4.04205,1.27918-7.78742,1.50967-11.73177,1.36065-1.43745.69967-3.58274,1.991-5.19917,1.01622-1.27211,1.187-3.21432,1.75969-4.84962a14.511,14.511,0,0,1,.68613-1.41379,18.07923,18.07923,0,0,1-8.24277-5.04331c-2.02212-2.02684-2.88367-4.5967-3.57862-7.13238-.56638-2.06652.58148-4.26515,1.81922-5.88633,1.58263-2.07292,3.42456-4.11707,6.51044-4.8506a36.593,36.593,0,0,0-5.02546-3.36132c-3.92867-1.77591-4.90623-5.50708-6.38066-8.93682-.275-.63973.91923-5.03486,1.45744-5.74134,1.16929-1.53481,2.36507-3.04945,3.66151-4.71566-.5898-.05577-1.24338-.1237-1.898-.17841-3.01523-.2519-6.06449-.30161-9.03651-.80659a36.53147,36.53147,0,0,1-8.40127-2.26834c-3.33432-1.44737-6.24392-3.65995-6.73072-7.714-.14248-1.18657-1.211-2.14575-.775-3.4277,1.009-2.96636,1.26724-6.16037,2.64946-9.00638a51.284,51.284,0,0,1,6.8136-10.67546,114.76581,114.76581,0,0,0,7.44462-10.371c3.8652-5.82008,7.69422-11.70652,10.52922-18.09082a86.20622,86.20622,0,0,0,5.62012-15.657c.49359-2.15264.06129-4.39178.875-6.35093.86272-2.07709.33684-4.11448.46523-6.15846.14049-2.23669.06791-4.4898.02027-6.7343a9.52584,9.52584,0,0,1,1.21785-4.74837,8.74868,8.74868,0,0,1,8.022-4.9489c11.34812-.21942,22.70312-.09407,34.05543-.07328,1.83567.00337,2.36246.53574,2.3668,2.38685q.0337,14.38686.01045,28.78027a23.96668,23.96668,0,0,0-10.21319,7.16514,18.45216,18.45216,0,0,0-3.34639,6.845,19.72794,19.72794,0,0,0-.63318,6.82349c.3981,6.18394,3.231,10.93638,8.26236,14.66788,4.45505,3.30411,9.36906,4.11392,14.57853,3.60222a14.15943,14.15943,0,0,0,6.5451-2.19056,25.75159,25.75159,0,0,0,6.51336-5.74865,19.421,19.421,0,0,0,3.63375-14.89917,18.50036,18.50036,0,0,0-4.936-10.30893,25.29306,25.29306,0,0,0-9.17625-5.942V381.27282c0-.74851.02038-1.49771-.00463-2.24537-.04044-1.20916.69911-1.7212,1.73227-1.91187a8.35906,8.35906,0,0,1,1.4942-.01522q25.44923,0,50.89847.00381c.35358.00009.70713.05708,1.16411.09643v57.53718h-9.162c-2.994,0-5.98851-.0322-8.982.0088a5.651,5.651,0,0,0-5.69041,5.61908q-.06017,8.60742.001,17.21553c.01077,1.82911.08886,3.5975-2.55434,3.35543-3.29568,2.31085-6.64454,4.41079-8.7693,8.15691a20.45277,20.45277,0,0,0-2.77769,13.3824,18.7925,18.7925,0,0,0,4.517,9.70009,21.62793,21.62793,0,0,0,10.0643,6.46744c1.88954.5798,3.62731.16669,5.40718.464,2.9594.49442,5.74179-.52661,8.31613-1.60056a24.16254,24.16254,0,0,0,5.95813-4.25617,14.86512,14.86512,0,0,0,2.27863-3.14615,18.08288,18.08288,0,0,0,3.05755-9.98351,19.36,19.36,0,0,0-10.68332-18.43752c-.9118-.52335-1.81275-1.06558-2.75958-1.62324v-13.949h20.164c3.172-2.195,3.73585-5.1249,3.72657-8.4427-.05612-20.07888-.02794-40.158-.02794-60.40267H342.538v3.6995c0,19.08693.06568,38.17429-.064,57.26034-.02186,3.2145.77006,5.71514,3.655,7.764h20.2532v14.11079c-.57011.3072-1.26928.73919-2.012,1.075a20.52819,20.52819,0,0,0-9.32064,8.75932c-1.1607,2.02266-2.46166,4.31453-2.07006,7.00532a27.18616,27.18616,0,0,1,.03258,4.48536,14.43657,14.43657,0,0,0,3.62139,9.73862c1.18921,1.4486,1.92462,3.31136,3.94536,3.90671,1.87541,2.674,5.234,2.46637,7.71215,3.96946,5.28983.18469,10.39062.30681,15.22875-2.91662,4.14689-2.76291,6.12169-6.76721,8.346-10.7839.06055-3.02607,2.10092-6.03562.07579-9.07911.23262-3.5922-1.99328-6.11162-3.61358-8.99788-1.3501-2.40495-3.45714-3.48736-5.51441-4.8096-1.36573-.87781-2.85172-1.56846-4.34569-2.3763,0-6.58543.01343-13.053-.00677-19.52042a5.49483,5.49483,0,0,0-3.46228-5.30907,5.79769,5.79769,0,0,0-2.79034-.4902c-5.83733-.03859-11.6751-.01954-17.60223-.01954V377.10036h51.13889c.74852,0,1.49749.01695,2.24541-.00386a1.74825,1.74825,0,0,1,1.89565,1.74272,15.98512,15.98512,0,0,1,.02026,2.24262v27.187a21.88462,21.88462,0,0,0-9.767,6.68857c-2.54144,3.17517-4.4902,6.62886-4.45436,10.87493.0235,2.78591-.347,5.63334.76352,8.29114,2.38969,5.71889,6.26362,10.18638,12.14983,12.29573a19.69819,19.69819,0,0,0,13.05508.166,19.76172,19.76172,0,0,0,12.78486-25.13313c-2.2476-6.48671-6.82957-10.57869-13.18316-13.105V377.10036h2.74984c10.35435,0,20.709-.03928,31.0628.03385a19.50716,19.50716,0,0,1,6.02581.79367,7.29,7.29,0,0,1,4.82652,4.924c.35159,1.35967,1.98024,3.03847.14266,4.60555-.12317.105-.02158.4803-.01521.72963.09242,3.61952-.78788,7.09314-1.35348,10.63062-.43095,2.69537-1.05337,5.31754-1.62975,7.96719-.54432,2.50208-1.59777,4.90214-2.08775,7.345-1.04438,5.2069-3.68334,9.73331-5.36033,14.6436-1.666,4.87823-4.53973,9.11324-6.89131,13.60472-2.49111,4.758-5.865,9.04829-8.76366,13.6-3.60949,5.66788-7.59412,11.09019-11.52063,16.5178-3.12292,4.31682-6.04119,8.77163-9.06382,13.14613-2.88958,4.1819-5.00889,8.86454-7.225,13.4552-1.25642,2.60264-2.185,5.33466-3.24467,8.01385a39.22583,39.22583,0,0,0-2.57977,8.24326c-.62471,4.12472-1.666,8.1872-1.843,12.44641-.15052,3.62212-.37377,7.28268-.63754,10.92-.13,1.793.89206,3.23465.83212,4.9351-.05709,1.61975-.44177,3.40861.10236,4.82066a13.55533,13.55533,0,0,1,.63478,4.59939,20.3395,20.3395,0,0,0,.867,4.15049c1.12306,4.388,1.83916,8.86735,3.29583,13.20251,1.13857,3.38848,2.15979,6.837,3.28762,10.24655a127.89547,127.89547,0,0,0,4.64218,12.29745,17.74939,17.74939,0,0,1,1.30466,9.15643c-.23768,2.69662-1.78255,5.07367-3.49,7.11456a14.50433,14.50433,0,0,1-5.55686,3.66466c-.25955.11212-.40846.48026-.60867.72976Z" transform="translate(-129.85283 -230.38536)"/><path d="M300.20082,230.38691c9.328,0,18.43435-.00477,27.54068.00243a7.43591,7.43591,0,0,1,7.30821,5.20334c1.41479,4.28,2.79413,8.57176,4.22083,12.84774.40563,1.21579.58114,2.48941.926,3.71942.81866,2.91974,2.333,4.86978,5.32584,5.53209,2.2717.50273,4.35693,1.54069,6.67932,2.00894a36.98364,36.98364,0,0,1,6.49456,2.329c4.58256,1.88417,8.932,4.33144,13.395,6.51134,6.51514,3.18233,5.72069,3.03255,11.97009.00662,4.57617-2.21574,9.07064-4.59987,13.63864-6.833,1.23557-.604,2.74276-1.51851,3.88377-1.25292,1.848.43016,3.85831.88909,5.33379,2.453,2.39593,2.53954,4.91976,4.95839,7.38956,7.4282,2.999,2.99907,5.89425,6.11313,9.0384,8.95147,1.72236,1.55481,2.22914,3.63543,2.90773,5.55308.46044,1.30121-.57671,2.86283-1.27826,4.24528-2.71712,5.3546-5.23933,10.80892-7.999,16.14077-1.53844,2.97233-1.20961,5.36079.61045,8.23376,2.331,3.67939,3.96768,7.81141,5.7683,11.80928,1.13455,2.519,2.07079,5.1318,3.00477,7.73524.81947,2.28412,1.64374,4.581,2.22949,6.93111.87185,3.49806,2.44291,6.15632,6.43078,6.50446,2.36093,1.67955,5.33135,1.49294,7.90751,2.59471,2.54062,1.08657,5.26076,1.75275,7.90043,2.60867a6.99689,6.99689,0,0,1,4.90058,4.27673,5.7202,5.7202,0,0,1,.56092,1.62836c.05835,2.71646.02664,5.43488.02664,8.23186H375.75811c-1.40454-3.38927-1.36287-7.09024-2.40744-10.59585A62.457,62.457,0,0,0,366.83,340.27775a55.9831,55.9831,0,0,0-9.11719-11.89722,59.5188,59.5188,0,0,0-18.11659-12.20712,76.4689,76.4689,0,0,0-10.89677-3.54326,58.52408,58.52408,0,0,0-19.22789-1.25428,48.28207,48.28207,0,0,0-11.71256,2.31865,76.17627,76.17627,0,0,0-10.47694,4.52215A56.08663,56.08663,0,0,0,269.84332,332.026a54.4547,54.4547,0,0,0-7.859,11.69262,56.07882,56.07882,0,0,0-4.84618,13.71835c-.4944,2.76232-1.36995,5.46475-1.56142,8.35862H174.117c0-1.97959-.01613-3.94265.00353-5.90536.03535-3.52925,2.51293-7.20953,5.84243-8.21032,6.09188-1.83111,12.07659-3.97308,18.12422-5.92253a5.295,5.295,0,0,0,2.98943-2.29185,16.6567,16.6567,0,0,0,2.0225-5.51966c2.289-8.68323,6.26886-16.62577,10.36745-24.5301.47759-.921.86073-1.89093,1.33415-2.81434a4.13339,4.13339,0,0,0-.05337-4.06928c-2.97555-5.87253-5.80881-11.81719-8.78928-17.68716-.71967-1.4174-1.589-2.84462-1.08879-4.37059a10.20147,10.20147,0,0,1,2.41565-4.63668c5.58193-5.35092,11.07687-10.80139,16.3966-16.41166,1.60285-1.69039,3.61506-2.26867,5.52894-2.98672,1.33739-.50176,2.87031.62281,4.27306,1.21823,4.38624,1.86179,8.409,4.40258,12.6248,6.577,1.40523.72477,2.96786,1.32938,4.415,1.96715a6.18068,6.18068,0,0,0,5.72419-.33293c3.62693-1.79547,7.09744-3.95412,10.83119-5.47513,5.12455-2.08758,10.08388-4.65986,15.64805-5.62886a19.60373,19.60373,0,0,0,5.426-2.21252c1.70086-.884,1.99519-2.88639,2.65373-4.431,1.08349-2.54137,1.37358-5.42624,2.49635-7.94414a47.70022,47.70022,0,0,0,2.63907-7.487C296.65213,233.91261,298.46041,232.39208,300.20082,230.38691Z" transform="translate(-129.85283 -230.38536)"/><path d="M258.19828,471.44833c5.03576-.721,8.01812,3.198,8.65847,8.11982.35026,2.6922-1.74051,4.49682-3.49642,6.36826-1.49833,1.5969-3.57279,1.03529-5.19144,1.94757-2.00472-.89156-4.28438-1.12975-5.87685-2.97816a7.93724,7.93724,0,0,1-1.8914-5.22606,8.05854,8.05854,0,0,1,2.2404-6.13884C254.05971,472.11226,255.9546,470.61984,258.19828,471.44833Z" transform="translate(-129.85283 -230.38536)"/><path d="M372.24315,471.43554a7.73759,7.73759,0,0,1,8.52259,7.94141,10.05461,10.05461,0,0,1-2.52268,6.062c-1.30832,1.66812-3.47931,1.937-5.34366,2.32289-1.089.22537-2.41222-.66635-3.7702-.71665a3.9637,3.9637,0,0,1-2.303-1.51519,10.47832,10.47832,0,0,1-1.79358-2.97485,8.70725,8.70725,0,0,1-.7355-3.408,7.65336,7.65336,0,0,1,2.64828-5.62815C368.55923,472.07473,370.2047,471.069,372.24315,471.43554Z" transform="translate(-129.85283 -230.38536)"/><path d="M415.68613,435.48632c-4.92014.6216-7.415-2.5299-8.6902-7.52878-.351-1.37582.7598-2.84348,1.38818-4.22021a5.6363,5.6363,0,0,1,3.50425-3.33185c1.27388-.4004,2.55956-1.14358,3.82054-1.10464a8.64368,8.64368,0,0,1,4.26054,1.29646,6.1552,6.1552,0,0,1,2.93843,3.57609c1.00761,4.34615,1.11975,8.44723-3.753,10.67962C417.83733,435.45663,417.84955,435.48328,415.68613,435.48632Z" transform="translate(-129.85283 -230.38536)"/><path d="M215.51827,435.43655a6.401,6.401,0,0,1-5.82847-2.12726c-1.71022-1.706-1.89346-3.70774-1.942-5.94719a7.80181,7.80181,0,0,1,2.29758-5.81028c1.59511-1.73865,3.91451-1.37357,5.6715-2.47732,1.85774,1.17946,4.22366.983,5.982,2.80594,1.6615,1.72252,1.23037,4.04146,2.53883,5.71489-1.30352,1.671-.77545,4.0689-2.521,5.67743A7.02766,7.02766,0,0,1,215.51827,435.43655Z" transform="translate(-129.85283 -230.38536)"/></svg>