<svg id="Layer_1" data-name="Layer 1" xmlns="http://www.w3.org/2000/svg" viewBox="0 0 384 344.44497"><path d="M431.75,506.49708c-.21336.08817-.59917.15316-.61469.268-.32041,2.37182-.564,4.7542-.90019,7.12353a22.693,22.693,0,0,1-.74949,3.42994c-1.01363,3.31885-1.91625,6.68812-3.20174,9.90248a73.942,73.942,0,0,1-3.36024,7.96962,79.22958,79.22958,0,0,1-8.43951,13.00423,52.9415,52.9415,0,0,1-4.86672,5.42893,49.55538,49.55538,0,0,1-13.77108,9.25772,23.70006,23.70006,0,0,1-6.936,2.07829c2.08693-4.047,4.09816-7.75612,5.93116-11.551a147.17461,147.17461,0,0,0,5.43118-14.22053c1.543-4.2722,2.21523-8.772,3.65563-13.07664.66992-2.002.09316-4.47441.93663-6.35065,1.19186-2.65122-.28049-5.59338,1.37769-8.04356.058-.08566.01792-.24552.00586-.36911-.54129-5.54605,1.09758-10.99725.73276-16.52905-.13355-2.02492-.577-4.02979-.704-6.05474-.12474-1.98807.3162-4.06531-.10261-5.96941-.74659-3.39439-.71253-6.89218-1.48961-10.23394-1.083-4.65741-1.86625-9.37523-3.21057-13.9926a128.72261,128.72261,0,0,0-4.315-12.44915,80.52967,80.52967,0,0,0-6.27414-13.14687c-2.063-3.24956-3.92585-6.62357-6.16589-9.78855a71.26978,71.26978,0,0,0-7.99109-10.159c-2.0533-2.00775-3.98108-4.15206-6.12135-6.06065a67.67173,67.67173,0,0,0-12.36942-9.01614c-2.14418-1.17775-4.22513-2.47022-6.51823-3.81862-1.03363-6.53906-3.6069-12.79326-5.76263-19.1445a84.10811,84.10811,0,0,0-6.29207-13.10246A108.7638,108.7638,0,0,0,328.916,345.70684,120.32252,120.32252,0,0,0,316.0256,332.413a85.93364,85.93364,0,0,0-16.26033-11.27951,97.26385,97.26385,0,0,0-9.67623-4.71828,133.68865,133.68865,0,0,0-15.77044-5.40585c-3.70713-1.03081-7.64951-1.15258-11.16426-2.87484-2.5985.529-5.00723-.74607-7.5627-.79108-1.9-.03346-3.78682-.55189-5.69123-.67888-1.86647-.12446-3.94947.49034-5.57781-.14192-2.81861-1.09445-5.5866-.436-8.36026-.5968-2.865-.16611-5.86333-.534-8.58978.10048-2.82275.65688-5.5904.26838-8.34047.64731a89.33932,89.33932,0,0,0-13.27767,2.356c-2.43849.725-5.00919.96346-7.38939,2.03594-2.30736,1.03965-5.00161,1.25571-7.25457,2.37674-3.83309,1.90726-7.90085,3.23735-11.5999,5.56289-3.35469,2.109-6.83148,4.05216-10.08788,6.34236a42.00083,42.00083,0,0,0-4.06716,2.81616,146.40748,146.40748,0,0,0-11.3114,10.6191,123.49088,123.49088,0,0,0-12.57293,16.46885,183.96243,183.96243,0,0,0-11.32451,21.52193c-1.44694,3.13646-2.5775,6.42166-3.82989,9.6444-1.25514,3.22977-1.84985,6.69818-3.56679,9.75.34371,2.587-1.83723,4.65295-1.5,7.23865-1.50632,2.06487-.73432,4.86674-2.25,6.9286.16245,3.14525-1.16039,6.04516-1.51861,9.10762-.13538,1.15742-.56294,2.28007-.70863,3.43723-.148,1.17577.22324,2.44768-.77276,3.42937.5737,2.71865-.90391,5.22407-.80681,7.925.05866,1.632-.53834,3.27672-.6661,4.92919-.12463,1.612.39061,3.38494-.11005,4.8343-1.21442,3.51556-.41942,7.05709-.64579,10.57244-.12,1.86344-.02125,3.74091-.02125,4.88158,1.15362,3.25769,2.08776,5.8609,2.99693,8.47277.91762,2.63612,1.50735,5.368,2.2991,8.03659.75892,2.558,1.06487,5.22108,2.10962,7.72979.51311,1.23209.31956,2.74867.74263,4.17166a39.119,39.119,0,0,1,.85268,6.77c.15768,1.40972.99077,2.65611.79241,4.18638a5.17177,5.17177,0,0,0,.64863,3.84078c.35053.5071.058,1.457.058,2.20541,0,5.11444.09278,10.2311-.03135,15.34256a58.957,58.957,0,0,1-.85239,10.88889c-.49089,2.28737-.50046,4.662-1.32111,6.90947-.75527,2.06841-1.01527,4.31284-1.70568,6.41013-.72369,2.19835-1.90422,4.24861-2.08947,6.618-2.5013,3.65541-3.66167,8.03769-6.346,11.60264-.983,1.30542-1.25716,3.0596-2.61925,4.17863-.24441.2008-.03477.95212-.03477,1.69632l1.90515.1248a68.969,68.969,0,0,0,8.8255-15.6743,74.31715,74.31715,0,0,0,4.306-13.19513c1.13929-5.13466,1.71786-10.31885,2.39749-15.52.75885-5.80731.267-11.54511.51976-17.30457.06057-1.38-.557-2.77643-.67571-4.181-.12562-1.48634.41057-3.18083-.13589-4.44187-.73309-1.69161-.207-3.42644-.73586-4.94312-.53988-1.54824-.35159-3.10147-.71978-4.57157-.5711-2.28031-.70119-4.69526-1.52193-6.84786-.91872-2.40956-.351-5.22738-2.16474-7.3352-.37161-4.12121-2.28416-7.78274-3.48925-11.65536-.98875-3.17743-2.58635-6.38133-1.67392-9.72695.85618-3.13937.428-6.2723.76848-9.70313,2.74458.72168,4.85286,2.34053,7.00339,3.82973a59.89582,59.89582,0,0,1,10.257,9.55546,62.021,62.021,0,0,1,9.35139,14.44723,83.16212,83.16212,0,0,1,6.319,18.35314c.64977,2.89736,1.03406,5.82657,1.5688,8.72435,1.34092,7.26649.68187,14.55165.478,21.78392a57.23769,57.23769,0,0,1-2.54419,14.21151c-.90626,3.11559-1.83663,6.25087-2.86269,9.31739a62.05871,62.05871,0,0,1-4.45964,9.7457c-2.4867,4.5872-5.14605,9.08432-8.95493,12.78182-1.1104,1.0779-1.76358,2.68963-2.97564,3.58637-3.60577,2.66772-6.84373,5.81949-10.977,7.82623a42.558,42.558,0,0,0-5.32393,2.5459c-1.69815,1.13754-3.96506.54881-5.60658,1.85062-3.79066-.0508-7.545,1.53383-11.29131.66475-2.41675-.56065-4.88119-.7444-7.28645-1.35773a42.2713,42.2713,0,0,1-6.44143-2.56837,54.0408,54.0408,0,0,1-11.00263-7.01972c-4.82439-3.68039-8.12964-8.46552-11.45882-13.26329a42.06276,42.06276,0,0,1-4.93606-9.17082c-1.08948-2.9008-2.45658-5.70758-3.55553-8.63419-.73709-1.96285-1.04333-4.02261-1.79521-5.98636a35.49866,35.49866,0,0,1-1.28976-6.24838c-.3194-1.76124-.32238-3.54916-.71064-5.28257-.02849-.12717-.399-.17807-.61056-.26442V499.76023c.25-.324.72035-.65124.71572-.9716-.04362-3.01462.84743-5.83975,1.45708-8.74927a79.09873,79.09873,0,0,1,6.83184-19.6377,57.91891,57.91891,0,0,1,11.5061-16.19646c1.17581-1.1178,2.30119-2.2884,3.33794-3.3231a31.152,31.152,0,0,0,.84884-5.02318c.01949-2.55636,1.35585-4.95091.80248-7.54587,1.27041-1.46021.08043-3.55764.94817-4.81641,1.06486-1.54471.1383-3.23505,1.17035-4.81412.88487-1.35388.58111-3.45781.89616-5.21338.29383-1.63734,1.04855-3.20121.73875-4.9287,1.50475-2.065.75226-4.85919,2.24657-6.92757-.55814-2.74452,1.21586-5.0121,1.61245-7.59311.48673-3.16774,1.80741-6.20729,2.76138-9.30416q2.75439-8.94145,6.015-17.71065c1.894-5.08959,4.00657-10.07079,6.13921-15.04959,1.08989-2.54444,2.488-4.9563,3.71859-7.442a147.58736,147.58736,0,0,1,8.25851-14.91583c1.47-2.26746,3.05588-4.46162,4.48324-6.75473a118.07832,118.07832,0,0,1,14.11-18.07572c6.33936-6.78915,12.97788-13.292,20.69518-18.64063a123.23131,123.23131,0,0,1,13.32944-8.589c5.73481-2.96375,11.43686-6.0166,17.62527-8.11078,3.504-1.18575,6.98318-2.43559,10.50835-3.58529,3.56142-1.16153,7.22546-1.80491,10.80329-2.83152,2.04519-.58685,4.49908-.10885,6.32628-1.00719,2.19374-1.07855,4.68.37978,6.59456-1.295,3.70075.56384,7.25556-.85358,10.93515-.77507,4.99559.10658,9.997-.05734,14.99256.05036,4.89846.10561,9.821-.5202,14.69471.67934,2.10627.51842,4.36757-.39774,6.54081.5161,2.112.88807,4.62481-.41935,6.69577,1.02635,4.53207.189,8.90223,1.325,13.31477,2.23207a95.3047,95.3047,0,0,1,10.2385,2.4622,188.82125,188.82125,0,0,1,22.97592,8.74151,141.16918,141.16918,0,0,1,24.30288,14.50239,93.45361,93.45361,0,0,1,12.99211,11.25309c3.65922,3.99982,7.73016,7.66907,11.03554,11.93483a161.903,161.903,0,0,1,10.4165,14.74367c1.88036,3.08353,3.91081,6.09656,5.532,9.31288a201.82546,201.82546,0,0,1,11.70888,27.33078c1.5306,4.6245,3.06956,9.236,4.18051,13.99.562,2.40491,1.60432,4.70035,1.46262,7.24492,1.9454,3.97644,1.8793,8.42815,2.90117,12.62582a74.25464,74.25464,0,0,1,1.45431,10.96611c.26635,3.00408.90606,5.9443,1.02407,8.98588,3.78909,2.41309,7.5916,4.73856,10.56134,8.14541.98176,1.12625,2.16474,2.07688,3.15749,3.19472a53.03458,53.03458,0,0,1,7.411,10.40139c2.31423,4.38914,4.7168,8.73623,6.14246,13.5485a125.31621,125.31621,0,0,1,3.46628,13.18142,43.69989,43.69989,0,0,1,.66423,5.6955c.0104.20952.46766.397.71764.59464Z" transform="translate(-47.75 -269.91208)"/><path d="M404,497.28726a56.25149,56.25149,0,0,0,.04523,5.98024c.228,2.12155-.61835,4.02766-.80271,6.05325-.18414,2.02339.44247,4.07741-.6633,6.09306-.47365.86335.0167,2.212-.10911,3.31993-.10341.91075-.57141,1.777-.70427,2.68818a120.31785,120.31785,0,0,1-6.193,23.6351,115.59768,115.59768,0,0,1-8.14259,16.817,82.08529,82.08529,0,0,1-10.19087,14.54334,90.22,90.22,0,0,1-7.0129,7.50957c-6.09235,5.44895-12.656,10.26435-20.2388,13.506-1.9086.816-3.89992,1.442-5.86316,2.12688a41.79557,41.79557,0,0,1-5.92673,1.94408,60.1366,60.1366,0,0,1-7.92547.78026c-2.36732.12256-4.7465-.003-7.11971.03141a47.62708,47.62708,0,0,1-17.34771-3.3636,56.75321,56.75321,0,0,1-13.92364-7.09509c-.36193-.26442-.91266-.27861-1.26038-.554-2.63979-2.091-5.39308-4.06755-7.83779-6.36888a83.95026,83.95026,0,0,1-10.61679-11.30576c-2.29326-3.14-4.562-6.31211-6.60464-9.616a71.53608,71.53608,0,0,1-5.49195-10.06634c-2.6026-6.28925-5.61946-12.439-6.91386-19.23716-.33845-1.77769-1.52351-3.42227-1.407-5.38238-1.061-.6687-.62029-1.74578-.77122-2.67935a18.2385,18.2385,0,0,1-.68595-2.68594c.00565-2.186-1.32571-4.191-.79173-6.42329-1.68929-2.707.19391-6.00841-1.46111-8.75492-.2759-.45783-.03889-1.22354-.03889-1.847,0-6.73321-.04472-13.46694.03415-20.19924a28.75926,28.75926,0,0,1,.71949-4.55259c.26669-1.51505-.65465-3.1766.70033-4.59717.312-.32705.032-1.20354.0485-1.82655.0631-2.38179.87593-4.62512,1.27757-6.934.4442-2.55364,1.09273-5.03434,1.679-7.54622,1.05709-4.52924,2.76077-8.83571,4.23674-13.21977,1.62552-4.82827,4.16746-9.2606,6.42263-13.79611a96.26256,96.26256,0,0,1,6.56028-10.38279,45.46943,45.46943,0,0,1,7.12571-8.66348,9.7817,9.7817,0,0,0,2.22894-2.80026c.48979-.946,1.86047-1.40933,2.76542-2.17539,2.04447-1.73065,4.02693-3.53407,6.06441-5.27311a27.43377,27.43377,0,0,1,3.94681-3.14138c3.31527-1.8984,6.73231-3.62355,10.14093-5.3545,2.38907-1.21319,10.4329-3.23677,13.042-3.82488,1.90565-.42952,3.804-.48845,5.68881-.76735,1.89792-.28086,3.75921-.858,5.69829-.64832,7.61529.82339,15.12875,1.79576,22.326,4.9026a85.2926,85.2926,0,0,1,16.27235,9.586,73.76815,73.76815,0,0,1,12.00914,11.50842,98.19523,98.19523,0,0,1,10.63094,15.363,130.2822,130.2822,0,0,1,9.7153,22.194c1.3215,3.839,2.21656,7.7874,3.54284,11.61785a32.894,32.894,0,0,1,.87937,5.627c.22,1.39764.52571,2.78207.73482,4.18108.19153,1.2818-.45119,2.71382.74252,3.8213.1246.11561.00432.48147.01858.73q.473,8.25493.9513,16.50955Zm-129-.12375a74.31321,74.31321,0,0,0,.07956,8.971c.35712,2.91817.87783,5.8599,1.27613,8.76425a77.37437,77.37437,0,0,0,2.41525,10.64433,63.3066,63.3066,0,0,0,8.22867,18.299c3.73947,5.54923,8.13906,10.17213,14.54521,12.93129a20.0772,20.0772,0,0,0,12.11007,1.10071,21.56126,21.56126,0,0,0,10.91467-6.13646,53.34883,53.34883,0,0,0,7.78777-9.864,61.371,61.371,0,0,0,5.60216-11.92183c1.78976-5.20142,3.50745-10.45224,3.79051-16.02312,1.1426-1.37176.59747-3.01718.76561-4.55279.18072-1.65047.66962-3.28411.69994-4.93106.09412-5.1123.03445-10.22743.03445-15.34147,0-.49892.21167-1.18371-.03623-1.465-1.139-1.29212-.53373-2.80427-.72645-4.21038-.1921-1.40134-.49635-2.7871-.73544-4.18239-.51922-3.02983-.62007-6.20479-1.62744-9.06213a120.49521,120.49521,0,0,0-7.01537-16.9335,44.24329,44.24329,0,0,0-11.01061-12.96219c-2.90616-2.43038-6.41339-4.43685-10.607-4.17684-.42733.02649-.86536-.3449-1.31548-.40564a8.3641,8.3641,0,0,0-2.02533-.07147,14.70365,14.70365,0,0,1-2.03384.468,11.62106,11.62106,0,0,0-5.08061,1.34555c-2.43059,1.02588-4.40449,2.72757-6.57719,4.104-2.92433,1.85255-4.62559,4.62971-6.59516,7.08941-3.327,4.155-5.4311,9.18163-7.44633,14.09039-.845,2.05823-2.01883,4.30464-1.72559,6.77118-1.9769,3.44851-2.21351,7.43247-2.76063,11.15883-.57626,3.92443-1.45146,7.94145-.95991,12.01537A37.70745,37.70745,0,0,1,275,497.16351Z" transform="translate(-47.75 -269.91208)"/><path d="M90.751,584.42217c5.38386,1.18382,10.18992.85871,14.89572.543a30.3395,30.3395,0,0,0,11.02422-3.14463,87.26768,87.26768,0,0,0,9.99492-5.72144,11.301,11.301,0,0,0,1.653-1.4383c1.77945-1.752,3.50549-3.55917,5.31369-5.28063a55.411,55.411,0,0,0,11.369-15.8878c2.194-4.4496,4.39835-8.89907,5.63-13.76809.74413-2.94168,1.64924-5.82634,2.23555-8.8247.32878-1.68135.56468-3.43839,1.07354-5.13263.51339-1.7094-.11488-3.755.37617-5.4775,1.42446-4.99675.37646-10.04349.63263-15.05427.07676-1.50158-.50864-3.02719-.68291-4.554a16.61794,16.61794,0,0,0-.64807-4.59925c-.57428-1.46028-.47568-3.25893-.73238-4.90367a63.88743,63.88743,0,0,0-1.69588-7.20073,74.47364,74.47364,0,0,0-6.75065-16.65127c-2.72661-4.84891-5.532-9.71905-9.6794-13.59743-.72924-.68194-1.45271-1.37614-2.11834-2.11869-4.05331-4.5217-9.04611-7.76549-14.3561-10.587-.211-.11214-.35788-.34459-.81209-.79794.29206-1.96639-.14462-4.12857.65583-6.46044.79923-2.32835.32527-5.066.94251-7.489.84011-3.29781,1.16763-6.68318,1.97455-9.9942.65908-2.70438,1.383-5.47844,1.79392-8.37253a61.56863,61.56863,0,0,1,11.70388-3.34548c1.9088-.29794,3.84212-.29948,5.69372-.68938a16.84127,16.84127,0,0,1,5.32765-.66334c1.77724.19416,3.5373.5589,5.31668.71561,1.668.1469,3.29248.002,4.972.68266,1.6076.65154,3.585.35112,5.25534.90406a44.72611,44.72611,0,0,1,4.6202,1.49435c6.697,3.08743,13.28236,6.312,19.04226,11.1372a86.98846,86.98846,0,0,1,9.87453,9.42069c4.956,5.69573,9.59824,11.66191,12.93718,18.561,1.25468,2.59252,2.63541,5.13951,3.92287,7.73271a94.21911,94.21911,0,0,1,5.70884,14.85652,65.97151,65.97151,0,0,1,3.03434,12.9696c1.52089,1.28374.41979,3.18974,1.13829,4.77261.612,1.34818-.08122,3.25448.43938,4.68282.96458,2.64643.15035,5.38765.7502,7.93259,1.211,5.13772.54307,10.28988.61122,15.426.04656,3.5083-1.09231,6.981-.68909,10.54133-1.02645,1.52529-.49459,3.29617-.81234,4.91678-.2979,1.51949-.48323,3.05167-.76759,4.55179-.82426,4.34857-1.96246,8.64213-3.09172,12.92728a62.74528,62.74528,0,0,1-2.4091,7.60815c-.95552,2.35585-1.64138,4.87365-2.77365,7.07531-2.59475,5.04537-4.90586,10.24413-7.98251,15.06184a74.35081,74.35081,0,0,1-6.29443,8.9245c-3.41183,3.90886-6.25683,8.444-10.92447,11.24048-2.05619,1.23188-3.614,3.26354-5.58266,4.67571a57.84422,57.84422,0,0,1-13.99948,7.80857c-2.065.74431-4.09419,1.57607-6.17455,2.2971-2.03326.70473-4.13119.832-6.16505,1.384-5.32283,1.44481-10.78319.54774-16.17995.77225-2.1838.09087-4.2043-1.24946-6.43825-.74642-1.64-1.31688-3.78545-1.02-5.64346-1.75742-3.00845-1.194-6.01989-2.34928-8.94021-3.76044a73.0417,73.0417,0,0,1-12.76785-8.145c-4.44819-3.42736-8.01612-7.68823-12.06084-11.48643A24.93449,24.93449,0,0,1,90.751,584.42217Z" transform="translate(-47.75 -269.91208)"/><path d="M314.28029,555.12628c-1.02722.38108-2.50905-.57367-3.63373.6809-.22824.25461-.95361.14457-1.4341.08226-4.21349-.54633-8.49157-1.27538-11.69827-4.21622-2.87492-2.63656-5.82436-5.24123-8.05707-8.57817a60.116,60.116,0,0,1-6.944-14.33769c-.99873-2.95754-1.93373-5.94059-2.76654-8.94824a22.645,22.645,0,0,1-.94968-5.20064c-.11039-3.27873-.60551-6.5487-.997-9.7574-.40143-3.29032-.26115-6.55178-.58477-9.80418-.22224-2.23378.6278-4.27015.79809-6.42126.16019-2.02335-.45868-4.07554.65728-6.08994.47582-.85891-.01641-2.20995.1094-3.3172.10341-.91011.594-1.77655.69638-2.68661a72.57514,72.57514,0,0,1,3.72514-13.04678c.69354-1.58064,1.14091-3.27321,1.88626-4.826a74.78619,74.78619,0,0,1,6.76092-10.69367,24.02288,24.02288,0,0,1,10.80666-8.273,16.518,16.518,0,0,1,10.101-.8657,20.66689,20.66689,0,0,1,10.38815,5.55744,39.59718,39.59718,0,0,1,6.66609,8.3764,76.01814,76.01814,0,0,1,7.12521,16.49155c.77922,2.66456,1.372,5.44629,1.91013,8.21475a76.75328,76.75328,0,0,1,1.42763,16.59514,9.04667,9.04667,0,0,0,.44359,2.049c.101.45806.41947,1.04622.24639,1.35847-1.34953,2.43446-.40008,5.05445-.7258,7.55891-.23287,1.79045.568,3.62954-.50148,5.4028-.868,1.43919.49067,3.43387-.98621,4.8197.22062,2.79427-.67653,5.37113-1.47789,7.98469-.61363,2.0013-.83327,4.13745-1.57562,6.08146a75.59587,75.59587,0,0,1-3.72856,8.17306,38.75042,38.75042,0,0,1-4.5354,7.4441c-3.37693,3.90968-6.87552,7.83475-12.09668,9.48214A5.19608,5.19608,0,0,0,314.28029,555.12628Z" transform="translate(-47.75 -269.91208)"/></svg>