<svg data-cached="true" xmlns="http://www.w3.org/2000/svg" width="2110" height="484" viewBox="0 0 2110 484" preserveAspectRatio="xMidYMid meet"><svg id="__background" x="0" y="0" width="2110" height="484" preserveAspectRatio="xMidYMid meet"><rect x="0" y="0" width="2110" height="484" fill="#ffffff" stroke="none" stroke-width="0px"/></svg><g id="__padding" transform="translate(26 26)"><svg id="data" x="0" y="0" width="2058" height="432" viewBox="0 0 2058 432" preserveAspectRatio="xMinYMid meet"><path fill="#000000" d="M0 432 L12 432 L12 0 L0 0 Z"/><path fill="#000000" d="M18 432 L24 432 L24 0 L18 0 Z"/><path fill="#000000" d="M36 432 L42 432 L42 0 L36 0 Z"/><path fill="#000000" d="M66 432 L72 432 L72 0 L66 0 Z"/><path fill="#000000" d="M84 432 L96 432 L96 0 L84 0 Z"/><path fill="#000000" d="M120 432 L126 432 L126 0 L120 0 Z"/><path fill="#000000" d="M132 432 L138 432 L138 0 L132 0 Z"/><path fill="#000000" d="M150 432 L174 432 L174 0 L150 0 Z"/><path fill="#000000" d="M180 432 L186 432 L186 0 L180 0 Z"/><path fill="#000000" d="M198 432 L204 432 L204 0 L198 0 Z"/><path fill="#000000" d="M216 432 L240 432 L240 0 L216 0 Z"/><path fill="#000000" d="M246 432 L252 432 L252 0 L246 0 Z"/><path fill="#000000" d="M264 432 L270 432 L270 0 L264 0 Z"/><path fill="#000000" d="M276 432 L282 432 L282 0 L276 0 Z"/><path fill="#000000" d="M294 432 L318 432 L318 0 L294 0 Z"/><path fill="#000000" d="M330 432 L336 432 L336 0 L330 0 Z"/><path fill="#000000" d="M342 432 L366 432 L366 0 L342 0 Z"/><path fill="#000000" d="M378 432 L384 432 L384 0 L378 0 Z"/><path fill="#000000" d="M396 432 L414 432 L414 0 L396 0 Z"/><path fill="#000000" d="M426 432 L432 432 L432 0 L426 0 Z"/><path fill="#000000" d="M444 432 L456 432 L456 0 L444 0 Z"/><path fill="#000000" d="M462 432 L468 432 L468 0 L462 0 Z"/><path fill="#000000" d="M474 432 L492 432 L492 0 L474 0 Z"/><path fill="#000000" d="M504 432 L516 432 L516 0 L504 0 Z"/><path fill="#000000" d="M528 432 L534 432 L534 0 L528 0 Z"/><path fill="#000000" d="M540 432 L558 432 L558 0 L540 0 Z"/><path fill="#000000" d="M570 432 L582 432 L582 0 L570 0 Z"/><path fill="#000000" d="M594 432 L618 432 L618 0 L594 0 Z"/><path fill="#000000" d="M630 432 L636 432 L636 0 L630 0 Z"/><path fill="#000000" d="M642 432 L648 432 L648 0 L642 0 Z"/><path fill="#000000" d="M660 432 L684 432 L684 0 L660 0 Z"/><path fill="#000000" d="M696 432 L702 432 L702 0 L696 0 Z"/><path fill="#000000" d="M708 432 L714 432 L714 0 L708 0 Z"/><path fill="#000000" d="M726 432 L750 432 L750 0 L726 0 Z"/><path fill="#000000" d="M762 432 L768 432 L768 0 L762 0 Z"/><path fill="#000000" d="M774 432 L780 432 L780 0 L774 0 Z"/><path fill="#000000" d="M792 432 L798 432 L798 0 L792 0 Z"/><path fill="#000000" d="M810 432 L822 432 L822 0 L810 0 Z"/><path fill="#000000" d="M834 432 L852 432 L852 0 L834 0 Z"/><path fill="#000000" d="M858 432 L864 432 L864 0 L858 0 Z"/><path fill="#000000" d="M876 432 L900 432 L900 0 L876 0 Z"/><path fill="#000000" d="M906 432 L912 432 L912 0 L906 0 Z"/><path fill="#000000" d="M924 432 L930 432 L930 0 L924 0 Z"/><path fill="#000000" d="M942 432 L948 432 L948 0 L942 0 Z"/><path fill="#000000" d="M960 432 L984 432 L984 0 L960 0 Z"/><path fill="#000000" d="M990 432 L996 432 L996 0 L990 0 Z"/><path fill="#000000" d="M1020 432 L1032 432 L1032 0 L1020 0 Z"/><path fill="#000000" d="M1038 432 L1044 432 L1044 0 L1038 0 Z"/><path fill="#000000" d="M1056 432 L1062 432 L1062 0 L1056 0 Z"/><path fill="#000000" d="M1074 432 L1080 432 L1080 0 L1074 0 Z"/><path fill="#000000" d="M1086 432 L1098 432 L1098 0 L1086 0 Z"/><path fill="#000000" d="M1122 432 L1128 432 L1128 0 L1122 0 Z"/><path fill="#000000" d="M1140 432 L1152 432 L1152 0 L1140 0 Z"/><path fill="#000000" d="M1158 432 L1164 432 L1164 0 L1158 0 Z"/><path fill="#000000" d="M1188 432 L1194 432 L1194 0 L1188 0 Z"/><path fill="#000000" d="M1200 432 L1212 432 L1212 0 L1200 0 Z"/><path fill="#000000" d="M1224 432 L1230 432 L1230 0 L1224 0 Z"/><path fill="#000000" d="M1254 432 L1260 432 L1260 0 L1254 0 Z"/><path fill="#000000" d="M1272 432 L1284 432 L1284 0 L1272 0 Z"/><path fill="#000000" d="M1290 432 L1308 432 L1308 0 L1290 0 Z"/><path fill="#000000" d="M1320 432 L1326 432 L1326 0 L1320 0 Z"/><path fill="#000000" d="M1338 432 L1350 432 L1350 0 L1338 0 Z"/><path fill="#000000" d="M1374 432 L1380 432 L1380 0 L1374 0 Z"/><path fill="#000000" d="M1386 432 L1392 432 L1392 0 L1386 0 Z"/><path fill="#000000" d="M1410 432 L1434 432 L1434 0 L1410 0 Z"/><path fill="#000000" d="M1440 432 L1446 432 L1446 0 L1440 0 Z"/><path fill="#000000" d="M1452 432 L1476 432 L1476 0 L1452 0 Z"/><path fill="#000000" d="M1482 432 L1500 432 L1500 0 L1482 0 Z"/><path fill="#000000" d="M1506 432 L1512 432 L1512 0 L1506 0 Z"/><path fill="#000000" d="M1518 432 L1524 432 L1524 0 L1518 0 Z"/><path fill="#000000" d="M1530 432 L1542 432 L1542 0 L1530 0 Z"/><path fill="#000000" d="M1554 432 L1560 432 L1560 0 L1554 0 Z"/><path fill="#000000" d="M1584 432 L1590 432 L1590 0 L1584 0 Z"/><path fill="#000000" d="M1602 432 L1614 432 L1614 0 L1602 0 Z"/><path fill="#000000" d="M1626 432 L1644 432 L1644 0 L1626 0 Z"/><path fill="#000000" d="M1650 432 L1656 432 L1656 0 L1650 0 Z"/><path fill="#000000" d="M1680 432 L1686 432 L1686 0 L1680 0 Z"/><path fill="#000000" d="M1692 432 L1704 432 L1704 0 L1692 0 Z"/><path fill="#000000" d="M1716 432 L1722 432 L1722 0 L1716 0 Z"/><path fill="#000000" d="M1740 432 L1764 432 L1764 0 L1740 0 Z"/><path fill="#000000" d="M1770 432 L1776 432 L1776 0 L1770 0 Z"/><path fill="#000000" d="M1782 432 L1806 432 L1806 0 L1782 0 Z"/><path fill="#000000" d="M1812 432 L1830 432 L1830 0 L1812 0 Z"/><path fill="#000000" d="M1836 432 L1842 432 L1842 0 L1836 0 Z"/><path fill="#000000" d="M1848 432 L1854 432 L1854 0 L1848 0 Z"/><path fill="#000000" d="M1860 432 L1878 432 L1878 0 L1860 0 Z"/><path fill="#000000" d="M1890 432 L1902 432 L1902 0 L1890 0 Z"/><path fill="#000000" d="M1914 432 L1920 432 L1920 0 L1914 0 Z"/><path fill="#000000" d="M1938 432 L1944 432 L1944 0 L1938 0 Z"/><path fill="#000000" d="M1950 432 L1974 432 L1974 0 L1950 0 Z"/><path fill="#000000" d="M1980 432 L1992 432 L1992 0 L1980 0 Z"/><path fill="#000000" d="M2010 432 L2028 432 L2028 0 L2010 0 Z"/><path fill="#000000" d="M2034 432 L2040 432 L2040 0 L2034 0 Z"/><path fill="#000000" d="M2046 432 L2058 432 L2058 0 L2046 0 Z"/></svg></g></svg>