<svg xmlns="http://www.w3.org/2000/svg" data-name="Layer 1" viewBox="0 0 95 118.75" x="0px" y="0px"><path d="M16.248,42.227l-5.7,3.36,3.243,5.739a.6.6,0,0,1,.041.065,1.318,1.318,0,0,1-.463,1.8,5.084,5.084,0,0,0-2.339,3.112A5.254,5.254,0,0,0,11.5,60.16c.013.02.024.039.036.059l.05.084a5,5,0,0,0,2.986,2.3,4.879,4.879,0,0,0,3.7-.464c.095-.052-.065.036.076-.048l0,0,.025-.013a1.311,1.311,0,0,1,1.788.5l3.269,5.783,4.638-2.733a7.845,7.845,0,0,1-.215-4.691,7.718,7.718,0,0,1,3.544-4.72l.121-.069,0,0,0,0a7.48,7.48,0,0,1,5.678-.709,7.6,7.6,0,0,1,3.878,2.515l4.642-2.737-3.245-5.74a.681.681,0,0,1-.041-.063,1.318,1.318,0,0,1,.464-1.8,5.1,5.1,0,0,0,2.339-3.111,5.242,5.242,0,0,0-.466-3.853.657.657,0,0,1-.035-.06l-.05-.085a5.01,5.01,0,0,0-2.987-2.3,4.875,4.875,0,0,0-3.7.461c-.094.054.064-.033-.076.049l0,0-.024.015a1.313,1.313,0,0,1-1.788-.5l-3.271-5.782-5.655,3.334v0l-.02.011a1.315,1.315,0,0,1-1.794-.495l-.05-.083a5,5,0,0,0-2.986-2.3,4.875,4.875,0,0,0-3.7.461c-.1.054.065-.035-.077.049a5.093,5.093,0,0,0-2.337,3.111,5.255,5.255,0,0,0,.456,3.84l.036.054a1.32,1.32,0,0,1-.465,1.8ZM49.28,56.186l3.245,5.738c.013.02.026.043.039.065a1.317,1.317,0,0,1-.464,1.8,5.1,5.1,0,0,0-2.338,3.111,5.239,5.239,0,0,0,.467,3.853c.011.021.024.041.035.062l.05.081a5,5,0,0,0,2.987,2.3,4.881,4.881,0,0,0,3.7-.462c.093-.053-.066.034.074-.05l0,0,.024-.013a1.316,1.316,0,0,1,1.79.5l3.269,5.783,5.655-3.334,0,0,.018-.011a1.317,1.317,0,0,1,1.8.5l.048.083a5.008,5.008,0,0,0,2.986,2.3,4.871,4.871,0,0,0,3.636-.426.588.588,0,0,1,.06-.035l.08-.049a5.105,5.105,0,0,0,2.339-3.111,5.251,5.251,0,0,0-.458-3.84c-.011-.017-.024-.035-.034-.054a1.319,1.319,0,0,1,.464-1.805l5.7-3.36-3.245-5.739c-.013-.022-.028-.042-.041-.065a1.317,1.317,0,0,1,.465-1.8A5.1,5.1,0,0,0,83.968,55.1a5.245,5.245,0,0,0-.467-3.853c-.013-.02-.024-.039-.035-.059l-.051-.086a5,5,0,0,0-2.986-2.3,4.871,4.871,0,0,0-3.7.464c-.093.052.065-.036-.074.048l0,0-.025.013a1.313,1.313,0,0,1-1.789-.5l-3.27-5.783-4.636,2.733a7.875,7.875,0,0,1,.215,4.691,7.733,7.733,0,0,1-3.544,4.72c-.075.043.033-.022-.128.067a7.484,7.484,0,0,1-5.679.711,7.6,7.6,0,0,1-3.878-2.516l-4.64,2.738ZM47.015,57.52,49.7,62.274a7.853,7.853,0,0,0-1.771,9.762c.013.028.026.054.042.082l.071.125a7.613,7.613,0,0,0,4.562,3.5,7.491,7.491,0,0,0,4.594-.2L59.9,80.3l-5.7,3.363,0,0a1.313,1.313,0,0,0-.476,1.776,5.24,5.24,0,0,1,.5,3.919,5.088,5.088,0,0,1-2.337,3.111v0l-.081.046,0,0a4.872,4.872,0,0,1-3.7.46,4.989,4.989,0,0,1-2.986-2.3l0,0-.011-.017a.844.844,0,0,0-.047-.089,1.317,1.317,0,0,0-1.8-.465l-5.655,3.336-3.243-5.736c-.011-.023-.024-.047-.037-.069a1.315,1.315,0,0,0-1.8-.469l-.086.048,0,0a4.869,4.869,0,0,1-3.7.46,5,5,0,0,1-2.987-2.3l0,0-.046-.08a5.241,5.241,0,0,1-.5-3.92,5.1,5.1,0,0,1,2.339-3.112l0,0a1.315,1.315,0,0,0,.477-1.775l-3.295-5.83,5.7-3.36,0,0a1.312,1.312,0,0,0,.476-1.775,5.248,5.248,0,0,1-.5-3.918A5.094,5.094,0,0,1,32.735,58.5l.082-.049,0,0a4.878,4.878,0,0,1,3.7-.461,5,5,0,0,1,2.986,2.3l.032.052.028.053a1.318,1.318,0,0,0,1.8.463l5.654-3.334ZM65.391,1.553l3.221,5.7a.792.792,0,0,0,.059.112,1.315,1.315,0,0,0,1.8.465c.14-.082-.02.006.075-.048a4.875,4.875,0,0,1,3.7-.462,4.993,4.993,0,0,1,2.986,2.3l.05.084h0a5.244,5.244,0,0,1,.5,3.913,5.1,5.1,0,0,1-2.339,3.113l0,0a1.314,1.314,0,0,0-.477,1.775l3.3,5.83-5.7,3.36,0,0a1.312,1.312,0,0,0-.476,1.775,5.241,5.241,0,0,1,.5,3.919A5.1,5.1,0,0,1,70.26,36.5l-.08.048v0a4.877,4.877,0,0,1-3.7.461,5.006,5.006,0,0,1-2.986-2.3l-.03-.052-.03-.052a1.317,1.317,0,0,0-1.8-.464L55.98,37.478l-2.689-4.753a7.859,7.859,0,0,0,1.773-9.763c-.013-.028-.027-.054-.042-.082l-.071-.125a7.633,7.633,0,0,0-4.564-3.5,7.477,7.477,0,0,0-4.592.205L43.1,14.7l5.7-3.361,0,0a1.314,1.314,0,0,0,.476-1.775,5.24,5.24,0,0,1-.5-3.919,5.1,5.1,0,0,1,2.339-3.111l0,0,.082-.046v0a4.878,4.878,0,0,1,3.7-.462,5.006,5.006,0,0,1,2.984,2.3l0,0,.009.019a.837.837,0,0,0,.049.087,1.317,1.317,0,0,0,1.8.465Z" style="" fill-rule="evenodd"/><text x="0" y="110" fill="#000000" font-size="5px" font-weight="bold" font-family="'Helvetica Neue', Helvetica, Arial-Unicode, Arial, Sans-serif">Created by Bahrul Ulum</text><text x="0" y="115" fill="#000000" font-size="5px" font-weight="bold" font-family="'Helvetica Neue', Helvetica, Arial-Unicode, Arial, Sans-serif">from the Noun Project</text></svg>