<svg xmlns="http://www.w3.org/2000/svg" data-name="Layer 1" viewBox="0 0 100 125" x="0px" y="0px"><path d="M82.996,39.026l-11.367-6.562h0l-18.085,31.325c-.724,1.255-1.153,2.682-1.239,4.126l-.298,4.952c-.063,1.045,.294,2.035,1.005,2.79,.711,.755,1.711,1.189,2.743,1.189,.73,0,1.442-.216,2.062-.624l4.14-2.734c1.208-.799,2.23-1.883,2.953-3.137l18.085-31.326h0Z"/><path d="M68.158,72.226c-1.011,1.752-2.44,3.27-4.133,4.389l-4.142,2.736c-1.238,.816-2.664,1.245-4.128,1.245-2.061,0-4.055-.863-5.473-2.368-1.427-1.513-2.144-3.498-2.019-5.587l.298-4.951c.121-2.021,.721-4.018,1.734-5.775l21.835-37.82c.966-1.673,2.424-2.963,4.12-3.768v-.327c0-5.169-4.206-9.375-9.375-9.375H25.625c-5.169,0-9.375,4.206-9.375,9.375v60c0,5.169,4.206,9.375,9.375,9.375h41.25c5.169,0,9.375-4.206,9.375-9.375v-21.79l-8.092,14.017ZM33.125,25.625h30c1.035,0,1.875,.84,1.875,1.875s-.84,1.875-1.875,1.875h-30c-1.035,0-1.875-.84-1.875-1.875s.84-1.875,1.875-1.875Zm-5.625,11.25h30.244c1.035,0,1.875,.84,1.875,1.875s-.84,1.875-1.875,1.875H27.5c-1.035,0-1.875-.84-1.875-1.875s.84-1.875,1.875-1.875Zm0,11.25h23.756c1.035,0,1.875,.84,1.875,1.875s-.84,1.875-1.875,1.875H27.5c-1.035,0-1.875-.84-1.875-1.875s.84-1.875,1.875-1.875Zm15.15,26.25h-15.15c-1.035,0-1.875-.84-1.875-1.875s.84-1.875,1.875-1.875h15.15c1.035,0,1.875,.84,1.875,1.875s-.84,1.875-1.875,1.875Zm2.119-11.25H27.5c-1.035,0-1.875-.84-1.875-1.875s.84-1.875,1.875-1.875h17.269c1.035,0,1.875,.84,1.875,1.875s-.84,1.875-1.875,1.875Z"/><path d="M87.308,28.263c-.389-1.451-1.319-2.664-2.621-3.416l-1.623-.938c-.855-.493-1.826-.753-2.809-.753-2.006,0-3.874,1.078-4.876,2.813l-1.875,3.247h0l11.367,6.562,1.874-3.246c.753-1.302,.952-2.818,.563-4.269Z"/><text x="0" y="115" fill="#000000" font-size="5px" font-weight="bold" font-family="'Helvetica Neue', Helvetica, Arial-Unicode, Arial, Sans-serif">Created by Hilmy Abiyyu Asad</text><text x="0" y="120" fill="#000000" font-size="5px" font-weight="bold" font-family="'Helvetica Neue', Helvetica, Arial-Unicode, Arial, Sans-serif">from the Noun Project</text></svg>