<svg xmlns="http://www.w3.org/2000/svg" data-name="Layer 1" viewBox="0 0 100 125" x="0px" y="0px"><path d="M52,68.79l-3.89,6.72a2.7,2.7,0,0,1-4.69-2.68l3.87-6.69a2.73,2.73,0,0,1,3.66-1A2.76,2.76,0,0,1,52,68.79ZM94.64,47.43,80.87,23.59a1.84,1.84,0,0,0-2.5-.67l-6.75,3.9a1.84,1.84,0,0,0-.67,2.5L84.66,53.07a1.82,1.82,0,0,0,2.65.7L93.9,50A1.84,1.84,0,0,0,94.64,47.43ZM45.48,59.33a2.72,2.72,0,0,0-3.69,1l-6,10.35a2.71,2.71,0,0,0,4.7,2.68L46.5,63A2.72,2.72,0,0,0,45.48,59.33Zm-15.33-4a2.72,2.72,0,0,0-3.69,1L22.62,63a2.7,2.7,0,0,0,4.67,2.72L31.17,59A2.7,2.7,0,0,0,30.15,55.31ZM68.71,34.64a8.3,8.3,0,0,1-4.48.65c-1.9-.22-3.63-.56-5.37-.9a55.6,55.6,0,0,0-6.49-1c-2.22-.18-3-.24-5.09,1.85l-7.52,7.52A.8.8,0,0,0,39.88,44c2,1.32,4.44,1.83,6.27,0l4.11-4.11a1.12,1.12,0,0,1,1.66.09c.13.16.26.32.4.51,2.88,3.75,6.29,6.31,11.29,5.95a1.2,1.2,0,0,1,.63.15l14.12,8.15.3.19a31.76,31.76,0,0,0,2.57-3.34l-10.37-18Zm8.53,22-13.82-8c-6.8.34-10.6-3.94-12.47-6.32l-3.22,3.21c-2.61,2.62-6.18,2.18-9.07.27a3,3,0,0,1-.48-4.68l3.75-3.76a44.81,44.81,0,0,1-12.84-3.71L19.15,50.93a19.24,19.24,0,0,0,4.22,6.25l1.15-2a4.94,4.94,0,0,1,8.77.41,4.95,4.95,0,0,1,8.21,1.9A4.94,4.94,0,0,1,49,62.61a4.94,4.94,0,0,1,4.92,7.3l-2.6,4.51L55.77,77a2.7,2.7,0,0,0,2.68-4.69,1.12,1.12,0,0,1-.39-1.54,1.11,1.11,0,0,1,1.53-.39L62,71.76a2.7,2.7,0,1,0,2.7-4.68,1.12,1.12,0,0,1,1.12-1.93l2.5,1.44A2.7,2.7,0,0,0,71.08,62a1.13,1.13,0,0,1-.34-1.55,1.12,1.12,0,0,1,1.55-.33l2.24,1.29a2.7,2.7,0,0,0,2.71-4.68Zm-39.1,0a2.71,2.71,0,0,0-3.66,1l-5.29,9.16a2.7,2.7,0,0,0,4.7,2.66l5.28-9.14A2.72,2.72,0,0,0,38.14,56.7ZM28.37,26.82l-6.74-3.9a1.85,1.85,0,0,0-2.51.67L5.41,47.34A1.83,1.83,0,0,0,6.12,50l6.65,3.84a1.85,1.85,0,0,0,2.51-.67L29,29.32A1.84,1.84,0,0,0,28.37,26.82Z"/><text x="0" y="115" fill="#000000" font-size="5px" font-weight="bold" font-family="'Helvetica Neue', Helvetica, Arial-Unicode, Arial, Sans-serif">Created by Hanbai</text><text x="0" y="120" fill="#000000" font-size="5px" font-weight="bold" font-family="'Helvetica Neue', Helvetica, Arial-Unicode, Arial, Sans-serif">from the Noun Project</text></svg>