<svg xmlns="http://www.w3.org/2000/svg" data-name="Layer 2 copy 3" viewBox="0 0 64 80" x="0px" y="0px"><defs><style>
      .cls-1 {
        stroke-width: 0px;
      }
    </style></defs><path class="cls-1" d="m5.09998,41.69c-.35349-8.79201,8.76325-16.33087,17.32014-13.78988,8.86986-14.81016,21.06987-15.67015,26.23986-15.26011-1.87758-3.04594-4.17807-5.57697-6.35995-7.69003-16.47-.37003-24.92001,16.81997-27.19003,22.29-.29999-.01001-.62-.01001-.92999.01001-3.56.17999-6.83002,1.97998-9,4.94-3.69,5.02997-2.96997,11.90997,1.52002,15.67999-1.02289-1.8362-1.59076-4.03485-1.60004-6.17999Z"/><path class="cls-1" d="m53.12,8.29999c-2.27002-1.60999-4.88-2.65997-7.60999-3.07001,9.01257,8.92305,11.47735,19.83918,1.17977,29.85999,2.35639,1.07506,4.38429,2.93717,5.6602,5.17998,10.17231-11.13798,9.8806-25.57408.77001-31.96996Z"/><path class="cls-1" d="m49.78003,40.01996c-4.49502-5.96902-13.96556-5.15486-18.12003.8202-7.08576,9.7432,2.76185,22.35845,13.76011,16.94972,6.54367-3.13135,8.8295-12.25322,4.35991-17.76992Zm-4.68005,10.68005c-4.64705,5.90041-13.053-.18051-8.78993-6.4501,4.633-5.93273,13.06102.23559,8.78993,6.4501Z"/><path class="cls-1" d="m42.89001,44.48999c-3.78446-2.5953-7.95713,3.20828-4.3699,5.97002,3.68499,2.56609,8.00625-3.12342,4.3699-5.97002Z"/><path class="cls-1" d="m22.53003,46.92999c-.51897-4.76562,1.70019-9.69636,5.52998-12.58001-6.81049-10.24556-22.40606-3.0719-20.87985,8.61029.53467,5.33218,5.36808,9.6432,10.71993,9.54966,1.96557.0012,3.9803-.5395,5.68993-1.49992-.57161-1.29096-.91886-2.67149-1.06-4.08001Z"/><path class="cls-1" d="m27.40002,49.71997c-1.10481-7.34876,4.7625-15.03283,12.28009-15.72988-5.64079-1.91789-12.31359,1.63474-14.38005,7.20004-1.89729,4.62414-.53214,10.42293,3.60997,13.37985-.37383-1.11461-1.37844-2.91509-1.51001-4.85001Z"/><text x="0" y="79" fill="#000000" font-size="5px" font-weight="bold" font-family="'Helvetica Neue', Helvetica, Arial-Unicode, Arial, Sans-serif">Created by Sentya Irma</text><text x="0" y="84" fill="#000000" font-size="5px" font-weight="bold" font-family="'Helvetica Neue', Helvetica, Arial-Unicode, Arial, Sans-serif">from the Noun Project</text></svg>