<svg xmlns="http://www.w3.org/2000/svg" version="1.1" viewBox="-5.0 -10.0 110.0 135.0">
 <path d="m38.902 35.367h-20.844v-1.6211c0-0.81641 0.50391-1.5117 1.2773-1.7656l4.6641-1.5117c0.61328-0.20312 1.0508-0.66406 1.2188-1.2891 0.69922-2.6641 1.7578-5.1836 3.1133-7.5078 0.32812-0.55859 0.34375-1.1953 0.050781-1.7773l-2.2266-4.3672c-0.37109-0.73047-0.23438-1.5742 0.33984-2.1523l4.4375-4.4336c0.57422-0.57422 1.4219-0.71484 2.1484-0.33984l4.3672 2.2266c0.58203 0.29688 1.2188 0.28125 1.7773-0.050781 2.3242-1.3555 4.8438-2.4102 7.5078-3.1133 0.625-0.16406 1.0859-0.59766 1.2891-1.2188l1.5117-4.6641c0.25391-0.77344 0.94922-1.2773 1.7656-1.2773h6.2695c0.81641 0 1.5117 0.50391 1.7578 1.2773l1.5195 4.6641c0.20312 0.61719 0.66406 1.0508 1.2891 1.2188 2.6641 0.70313 5.1836 1.7578 7.5078 3.1133 0.55859 0.32812 1.1953 0.34375 1.7773 0.050781l4.3672-2.2266c0.73047-0.37109 1.5742-0.23437 2.1484 0.33984l4.4375 4.4375c0.57422 0.57422 0.71484 1.4219 0.33984 2.1484l-2.2266 4.3672c-0.29688 0.58203-0.28125 1.2188 0.050781 1.7773 1.3555 2.3242 2.4102 4.8438 3.1133 7.5078 0.16406 0.625 0.59766 1.0859 1.2188 1.2891l4.6641 1.5117c0.77344 0.25391 1.2773 0.94922 1.2773 1.7656v1.6211l-20.844-0.003907c-0.76172-7.9102-7.4258-14.09-15.531-14.09-8.1094 0-14.773 6.1836-15.535 14.094zm39.281 16.078c0 0.56641 0.23047 1.0742 0.60156 1.4453 0.36719 0.36719 0.88281 0.59766 1.4453 0.59766 0.56641 0 1.0742-0.23047 1.4453-0.59766 0.36719-0.37109 0.59766-0.88281 0.59766-1.4453 0-0.57031-0.23047-1.0781-0.59766-1.4453-0.37109-0.37109-0.88281-0.60156-1.4453-0.60156s-1.0781 0.23047-1.4453 0.60156c-0.375 0.36719-0.60156 0.87891-0.60156 1.4453zm-51.594 0c0 0.56641 0.23047 1.0742 0.59766 1.4453 0.37109 0.36719 0.88281 0.59766 1.4453 0.59766 0.56641 0 1.0781-0.23047 1.4453-0.59766 0.37109-0.37109 0.60156-0.88281 0.60156-1.4453 0-0.57031-0.23047-1.0781-0.60156-1.4453-0.36719-0.37109-0.88281-0.60156-1.4453-0.60156s-1.0742 0.23047-1.4453 0.60156c-0.36719 0.36719-0.59766 0.87891-0.59766 1.4453zm66.199-12.211c-0.41016-0.44922-0.9375-0.67969-1.5469-0.67969h-9.4141v7.8984c0.80469 0.25781 1.5234 0.70312 2.1094 1.2891 0.94922 0.94922 1.5352 2.2578 1.5352 3.7031 0 1.4414-0.58594 2.75-1.5352 3.6992s-2.2578 1.5352-3.7031 1.5352-2.7578-0.58594-3.7031-1.5352c-0.94922-0.94922-1.5352-2.2578-1.5352-3.6992 0-1.4453 0.58594-2.7578 1.5352-3.7031 0.58203-0.58594 1.3047-1.0312 2.1055-1.2891v-7.8984h-14.09v14.613h4.625c0.88281 0 1.5938 0.71875 1.5938 1.6016v5.0586c0.80469 0.25781 1.5234 0.70312 2.1094 1.2891 0.94922 0.94922 1.5352 2.2578 1.5352 3.7031 0 1.4453-0.58594 2.7578-1.5352 3.7031-0.94922 0.94922-2.2578 1.5352-3.7031 1.5352s-2.7578-0.58594-3.7031-1.5352c-0.94922-0.94922-1.5352-2.2578-1.5352-3.7031 0-1.4453 0.58594-2.7578 1.5352-3.7031 0.58203-0.58594 1.3047-1.0312 2.1055-1.2891v-3.4648h-4.6211c-0.88281 0-1.6016-0.71484-1.6016-1.5938v-16.215h-13.836v16.211c0 0.88281-0.71875 1.5938-1.6016 1.5938h-4.6211v3.4648c0.80078 0.25781 1.5234 0.70312 2.1055 1.2891 0.94922 0.94922 1.5352 2.2578 1.5352 3.7031 0 1.4453-0.58594 2.7578-1.5352 3.7031-0.94922 0.94922-2.2578 1.5352-3.7031 1.5352-1.4453 0-2.7578-0.58594-3.7031-1.5352-0.94922-0.94922-1.5352-2.2578-1.5352-3.7031 0-1.4453 0.58594-2.7578 1.5352-3.7031 0.58594-0.58594 1.3047-1.0312 2.1094-1.2891v-5.0586c0-0.88281 0.71094-1.6016 1.5938-1.6016h4.625l0.003907-14.609h-14.09v7.8984c0.80078 0.25781 1.5234 0.70312 2.1055 1.2891 0.94922 0.94922 1.5352 2.2578 1.5352 3.7031 0 1.4414-0.58594 2.75-1.5352 3.6992-0.94922 0.94922-2.2578 1.5352-3.7031 1.5352-1.4453 0-2.7578-0.58594-3.7031-1.5352-0.94922-0.94922-1.5352-2.2578-1.5352-3.6992 0-1.4453 0.58594-2.7578 1.5352-3.7031 0.58594-0.58594 1.3047-1.0312 2.1094-1.2891v-7.8984h-9.4141c-0.58203 0-1.0742 0.20703-1.4844 0.61719-0.41016 0.41016-0.61328 0.91016-0.61328 1.4922 0.023438 4.4023-0.039062 8.3906-7.3516 17.773-4.5586 7.3789 2.3125 7.4258 5.5352 7.5195-3.3203 2.8594-0.23438 5.3672 1.6289 5.9062-3.6797 1.5039-2.6016 4.8789 0.67969 5.9961-5.4023 12.684 4.1484 13.145 17.609 10.402l2.043 8.4297c0.40625 1.6641 1.8477 2.8008 3.5625 2.8008h38.164c1.2617 0 2.3477-0.58203 3.0469-1.6289 0.70312-1.0469 0.82031-2.2734 0.33984-3.4414-12.148-29.371 10.531-29.828 12.543-53.586 0.054688-0.60938-0.13281-1.1523-0.54297-1.6016zm-54.539 24.137c-0.36719 0.36719-0.59766 0.88281-0.59766 1.4453 0 0.56641 0.23047 1.0742 0.59766 1.4453 0.37109 0.36719 0.88281 0.59766 1.4453 0.59766 0.56641 0 1.0781-0.23047 1.4453-0.59766 0.37109-0.37109 0.59766-0.88281 0.59766-1.4453 0-0.56641-0.22656-1.0781-0.59766-1.4453-0.36328-0.37109-0.87891-0.60156-1.4453-0.60156-0.5625 0-1.0742 0.23047-1.4453 0.60156zm29.477 2.8945c0.36719 0.36719 0.88281 0.59766 1.4453 0.59766 0.56641 0 1.0742-0.23047 1.4453-0.59766 0.36719-0.37109 0.59766-0.88281 0.59766-1.4453 0-0.56641-0.23047-1.0781-0.59766-1.4453-0.37109-0.375-0.88281-0.60547-1.4453-0.60547s-1.0781 0.23047-1.4453 0.60156c-0.37109 0.36719-0.59766 0.88281-0.59766 1.4453 0 0.57031 0.22266 1.0781 0.59766 1.4492z"/>
<text x="0.0" y="117.5" font-size="5.0" font-weight="bold" font-family="Arbeit Regular, Helvetica, Arial-Unicode, Arial, Sans-serif" fill="#000000">Created by nangicon</text><text x="0.0" y="122.5" font-size="5.0" font-weight="bold" font-family="Arbeit Regular, Helvetica, Arial-Unicode, Arial, Sans-serif" fill="#000000">from Noun Project</text></svg>