<svg id="Layer_1" data-name="Layer 1" xmlns="http://www.w3.org/2000/svg" viewBox="0 0 382.94344 208.25249"><path d="M106.74854,392.07112q31.23627-35.76345,62.41384-71.57775c2.17867-2.51524,3.64775-2.74371,6.38726-.86282,9.655,6.62891,19.47788,13.01479,29.28425,19.42063,1.95287,1.27567,2.90252,2.26619,1.19835,4.64865q-27.29791,38.16324-54.44044,76.43768a25.43776,25.43776,0,0,1-2.00635,2.171l-42.83691-29.48887Z" transform="translate(-106.74854 -318.21468)"/><path d="M273.12873,490.95213c6.62648-9.6436,7.15952-18.80967-.809-27.505-3.66266-3.99669-8.4012-6.20452-13.73532-5.48952-4.77656.64026-9.40471,2.38755-14.70475,3.809-5.69321-12.28483-15.68613-16.08349-29.38122-10.66943-1.07638-1.69241-2.12607-3.51087-3.33554-5.216-5.77441-8.14077-15.40639-10.92732-24.46142-6.77082-2.54528,1.16836-4.34664.85027-5.94173-1.04374-4.88687-5.80252-9.7952-11.59832-14.35493-17.653-.69788-.92667-.11674-3.57564.75179-4.80917,13.35575-18.96846,26.8573-37.83427,40.32479-56.72406a22.96936,22.96936,0,0,0,2.56422-3.67574c2.53957-5.69751,7.2612-6.89977,12.862-6.66061,10.1449.43319,20.2938.77265,30.441,1.15125l.28311,1.143c-3.98914,3.09522-7.83632,6.3987-12.00026,9.23757-6.47118,4.41189-9.31107,10.241-8.979,18.10934.36793,8.71726.05053,17.46218.09583,26.19471.03837,7.39411,4.33454,10.76444,11.49061,8.893,13.48722-3.52717,22.57545-11.87944,26.61992-25.27723.98386-3.25915,2.50631-4.365,5.79068-4.24526,5.85565.21343,11.72863.18788,17.58643.00644,2.94809-.09132,4.58693,1.008,6.34792,3.43169,4.4457,6.1188,9.22946,12.024,14.26327,17.67114,2.88514,3.23665,6.8046,4.509,11.43245,4.38018,7.34364-.20435,14.71092.23865,22.0596.58853a9.12963,9.12963,0,0,1,4.46155,1.48117q33.47061,22.63973,66.83021,45.44332c6.19759,4.23937,7.32655,12.25489,2.96452,19.25911-3.44988,5.53957-10.35492,7.12025-16.81576,3.59311a78.63465,78.63465,0,0,1-7.71574-5.26638c-17.9778-12.81384-35.92256-25.67434-53.95651-38.40858a11.14608,11.14608,0,0,0-5.44453-1.81567,3.85918,3.85918,0,0,0-3.04866,2.10709,5.42984,5.42984,0,0,0,.79185,4.079c.77878,1.1692,2.2988,1.857,3.523,2.7153,14.80759,10.3824,29.65145,20.71342,44.41637,31.15616a12.50216,12.50216,0,0,1,3.70212,17.162c-3.02442,4.97268-8.34761,7.09411-13.86611,5.2A25.1733,25.1733,0,0,1,367.962,493.208c-13.64474-9.65189-27.2269-19.39225-40.82959-29.10362-.91358-.65223-1.8347-1.29388-2.74805-1.94643-2.08932-1.49278-4.206-1.249-5.62133.68846-1.50406,2.059-1.16173,4.23921,1.0988,5.83335q11.92568,8.41,23.84163,16.83379a79.24385,79.24385,0,0,1,7.48634,5.59138c5.96322,5.399,6.08189,13.98816.4515,19.19195-4.51448,4.17242-10.35953,4.29468-16.45477.055-9.41952-6.552-18.73748-13.25007-28.1-19.88405-1.11931-.79311-2.20474-1.646-3.38157-2.34332-2.11731-1.25463-4.39559-1.67477-5.96754.626-1.57272,2.30185-.93766,4.66582,1.27686,6.23981,2.94371,2.09226,6.08292,3.90874,9.13028,5.856,6.44154,4.11627,8.317,12.10572,4.17994,17.77389-4.04891,5.54743-12.0445,6.33932-17.99007,1.99749-2.63525-1.92446-3.77412-3.67316-3.14931-7.36813,1.67485-9.90474-4.76954-18.83438-14.58479-21.34338C275.56042,491.64036,274.52973,491.33827,273.12873,490.95213Z" transform="translate(-106.74854 -318.21468)"/><path d="M241.25175,405.57225c0-4.42386-.00028-8.87668.00005-13.3295.00042-5.363-.28252-10.74848.13789-16.07842a10.28306,10.28306,0,0,1,2.93519-6.36941c7.27719-6.44673,14.84575-12.56939,22.42144-18.66954a9.61145,9.61145,0,0,1,4.63959-1.9177,412.9413,412.9413,0,0,1,65.30915-2.7886c14.05834.51508,28.0821,1.95581,42.12468,2.93378a8.24347,8.24347,0,0,1,6.69234,3.9281q21.82731,31.29684,43.95813,62.38122c1.80414,2.53376,2.19068,4.48754.13731,6.92516-4.6488,5.51871-9.21511,11.10727-13.78444,16.69241-2.1065,2.57474-4.06287,2.76249-6.94326.72213q-25.64012-18.16248-51.557-35.9324a12.46094,12.46094,0,0,0-6.12742-2.00937c-8.09106-.422-16.20994-.33967-24.29491-.83194-2.28527-.13915-5.22673-.96277-6.59976-2.56121a185.14329,185.14329,0,0,1-13.75133-18.01633c-1.97242-2.96548-3.89672-4.388-7.44682-4.32529q-14.02686.24792-28.06052.00264c-3.831-.06782-5.56534,1.40336-6.27651,5.19848-2.15351,11.49206-8.2239,19.9027-19.7582,23.64507a16.53894,16.53894,0,0,1-2.15972.55676A7.63226,7.63226,0,0,1,241.25175,405.57225Z" transform="translate(-106.74854 -318.21468)"/><path d="M489.692,392.87916c-14.59965,9.93791-28.87007,19.65174-43.38841,29.53434-19.38348-27.20294-38.5088-54.04354-57.856-81.19559,1.77655-1.25075,3.15175-2.26906,4.576-3.21351,9.45-6.2667,18.94536-12.466,28.34007-18.81435,2.03584-1.3757,3.28714-1.39058,4.98328.56413q30.63144,35.30022,61.39295,70.48761C488.30567,390.89105,488.771,391.62787,489.692,392.87916Z" transform="translate(-106.74854 -318.21468)"/><path d="M240.12275,512.17444c-9.14867-.68889-15.2961-10.50781-10.35189-17.664,6.36142-9.20747,13.56078-17.85954,20.73568-26.47049,3.12186-3.74671,9.76722-3.571,13.69568-.37431,5.13761,4.18055,6.96866,10.44394,3.67175,14.79541-6.6201,8.73767-13.4671,17.31773-20.57365,25.66205C245.62789,510.08679,242.55264,510.85582,240.12275,512.17444Z" transform="translate(-106.74854 -318.21468)"/><path d="M223.76553,456.88471c5.39739.9185,9.03578,3.24247,11.32059,7.52182,2.22952,4.17583.972,7.87623-1.86045,11.36356-3.29985,4.06279-6.38144,8.30217-9.64529,12.3951-4.25479,5.3355-10.64374,6.39684-15.47613,2.66938-5.72275-4.41422-6.8554-10.75824-2.65015-16.39912a139.96586,139.96586,0,0,1,10.85108-13.32465C218.19865,459.13385,221.24262,458.2588,223.76553,456.88471Z" transform="translate(-106.74854 -318.21468)"/><path d="M282.96175,510.72291c.03452,5.53379-6.09654,13.85984-11.41,15.29332-5.15831,1.39163-9.25625-.533-12.55337-4.46035-3.15557-3.7587-2.72756-7.94156-.68027-11.86285a33.64251,33.64251,0,0,1,5.6994-7.78565c3.14067-3.22079,7.17554-3.78477,11.37511-2.20665A12.13784,12.13784,0,0,1,282.96175,510.72291Z" transform="translate(-106.74854 -318.21468)"/><path d="M194.12361,445.72045c4.6594.04089,8.033,2.40312,10.29347,6.23848,2.33074,3.95464,1.58138,7.85191-.98288,11.52488-5.2219,7.47974-12.69033,9.5577-18.78239,5.11031a10.0353,10.0353,0,0,1-4.19135-11.07824C181.87832,451.181,188.13133,445.77614,194.12361,445.72045Z" transform="translate(-106.74854 -318.21468)"/></svg>