<svg id="Layer_1" data-name="Layer 1" xmlns="http://www.w3.org/2000/svg" viewBox="0 0 491 491"><defs><style>.cls-1{fill:#fff;}</style></defs><path class="cls-1" d="M126.19787,719.88983H52.5q0-245.49993,0-490.99993,245.49992,0,490.99988-.00007Q543.5,474.38963,543.5,719.88966q-51.68414.00025-103.36838.00017c12.37678-6.87628,14.29148-13.24845,7.85058-26.15362-9.02994-18.09265-18.22745-36.10428-27.01972-54.31166-3.84762-7.96779-9.4877-11.589-18.44018-11.51582-31.08889.254-62.18112.098-93.27208.09805q-73.42251.00014-146.845-.03218c-6.81913-.00847-12.237,2.31088-15.36862,8.51376q-15.49728,30.69587-30.76494,61.50752c-2.37732,4.77816-2.45956,9.90609.69171,14.091C119.32706,715.22588,123.06936,717.32676,126.19787,719.88983Zm183.3846-302.777.979-.97971a3.03781,3.03781,0,0,1,.77786.29923c1.14648.86,2.29249,1.72307,3.39968,2.63258,15.72478,12.91736,33.18678,18.27378,53.47282,13.16606,10.98448-2.76572,21.46148-.66639,31.21653,5.269,5.84548,3.55662,11.80145,6.98843,17.94944,9.97956a33.28259,33.28259,0,0,0,40.12847-7.8973c6.8923-7.73682,13.50386-15.73669,19.97765-23.82956,5.90229-7.37845,6.52143-16.98987,1.40051-24.52221a39.9389,39.9389,0,0,0-8.35969-8.40952c-39.10724-31.01522-78.17865-62.07765-117.50127-92.81835-17.58375-13.74618-26.82277-30.6968-23.75751-53.46864.765-5.68309-1.89659-7.76991-7.40365-6.17188-14.32419,4.15654-26.1948,11.737-33.15914,25.41461q-13.24275,26.00808-42.20471,24.7406c-19.92672-.86311-35.90305,7.00987-48.92348,21.64486a149.66067,149.66067,0,0,0-29.2764,50.026c-14.79807,41.73373-21.116,84.9783-21.97514,129.04767-.72751,37.3158-.69164,74.6465-.99189,111.97063-.00992,1.23267-.00127,2.46546-.00127,3.90718H414.93824c0-1.97671-.0014-3.69328.00021-5.40988.01189-12.76129-.09683-25.52412.07057-38.28338.17-12.95485-3.79791-24.082-13.50512-32.95645-10.71111-9.79223-22.42336-18.73749-31.8225-29.666C349.021,466.77589,329.54309,441.73679,309.58247,417.11284Z" transform="translate(-52.5 -228.88983)"/><path d="M126.19787,719.88983c-3.12851-2.56307-6.87081-4.66395-9.23448-7.8029-3.15127-4.185-3.069-9.31289-.69171-14.091q15.31739-30.78626,30.76494-61.50752c3.1316-6.20288,8.54949-8.52223,15.36862-8.51376q73.42241.09121,146.845.03218c31.091-.00005,62.18319.15592,93.27208-.09805,8.95248-.07314,14.59256,3.548,18.44018,11.51582,8.79227,18.20738,17.98978,36.219,27.01972,54.31166,6.4409,12.90517,4.5262,19.27734-7.85058,26.15362Z" transform="translate(-52.5 -228.88983)"/><path d="M309.58247,417.11284c19.96062,24.62395,39.4385,49.66305,60.09893,73.68512,9.39914,10.92855,21.11139,19.87381,31.8225,29.666,9.70721,8.87441,13.67508,20.0016,13.50512,32.95645-.1674,12.75926-.05868,25.52209-.07057,38.28338-.00161,1.7166-.00021,3.43317-.00021,5.40988H145.33033c0-1.44172-.00865-2.67451.00127-3.90718.30025-37.32413.26438-74.65483.99189-111.97063.85915-44.06937,7.17707-87.31394,21.97514-129.04767a149.66067,149.66067,0,0,1,29.2764-50.026c13.02043-14.635,28.99676-22.508,48.92348-21.64486q29.00009,1.25613,42.20471-24.7406c6.96434-13.67761,18.83495-21.25807,33.15914-25.41461,5.50706-1.598,8.16863.48879,7.40365,6.17188-3.06526,22.77184,6.17376,39.72246,23.75751,53.46864,39.32262,30.7407,78.394,61.80313,117.50127,92.81835a39.9389,39.9389,0,0,1,8.35969,8.40952c5.12092,7.53234,4.50178,17.14376-1.40051,24.52221-6.47379,8.09287-13.08535,16.09274-19.97765,23.82956a33.28259,33.28259,0,0,1-40.12847,7.8973c-6.148-2.99113-12.104-6.42294-17.94944-9.97956-9.755-5.93543-20.232-8.03476-31.21653-5.269-20.286,5.10772-37.748-.2487-53.47282-13.16606-1.10719-.90951-2.2532-1.77261-3.39968-2.63258a3.03781,3.03781,0,0,0-.77786-.29923Z" transform="translate(-52.5 -228.88983)"/></svg>